<?xml version="1.0" standalone="no"?>
<!DOCTYPE svg PUBLIC "-//W3C//DTD SVG 1.1//EN" "http://www.w3.org/Graphics/SVG/1.1/DTD/svg11.dtd" >
<svg xmlns="http://www.w3.org/2000/svg" xmlns:xlink="http://www.w3.org/1999/xlink" version="1.1">
<metadata></metadata>
<defs>
<font id="expo_sans_probold" horiz-adv-x="1146" >
<font-face units-per-em="2048" ascent="1657" descent="-391" />
<missing-glyph horiz-adv-x="444" />
<glyph unicode="&#xfb01;" horiz-adv-x="1208" d="M10 784l64 224h67v43q0 250 125.5 400.5t351.5 150.5l31 -263q-94 -3 -149.5 -75t-55.5 -215v-41h236l-55 -224h-181v-784h-303v784h-131zM731 1403v65l316 97l38 -39l-53 -312l-139 -45zM762 0v948l303 90v-1038h-303z" />
<glyph unicode="&#xfb02;" horiz-adv-x="1218" d="M10 784l64 224h67v43q0 114 32 212t95 174.5t166 120.5t236 44l30 -242q-126 0 -191 -82.5t-65 -228.5v-41h256l-55 -224h-201v-784h-303v784h-131zM784 0v1497l303 90v-1587h-303z" />
<glyph horiz-adv-x="0" />
<glyph horiz-adv-x="682" />
<glyph unicode=" "  horiz-adv-x="444" />
<glyph unicode="&#x09;" horiz-adv-x="444" />
<glyph unicode="&#xa0;" horiz-adv-x="444" />
<glyph unicode="!" horiz-adv-x="655" d="M127 168q21 60 80 103.5t137 50.5q68 -15 119.5 -71.5t64.5 -129.5q-27 -65 -87 -104t-140 -48q-63 13 -113 70.5t-61 128.5zM152 1370l325 68l27 -21l-49 -919l-228 -56l-30 23z" />
<glyph unicode="&#x22;" horiz-adv-x="946" d="M86 1403l293 31l45 -35l-64 -522l-176 -62l-45 33zM524 1403l293 31l43 -35l-63 -522l-174 -62l-48 33z" />
<glyph unicode="#" d="M47 319l57 236h160l51 211h-159l57 235h160l55 228h199l-54 -228h166l56 228h198l-55 -228h162l-58 -235h-163l-52 -211h164l-59 -236h-160l-53 -225h-201l55 225h-167l-56 -225h-198l53 225h-158zM463 555h168l51 211h-168z" />
<glyph unicode="$" d="M111 174l131 221q52 -56 125.5 -96.5t158.5 -50.5v350q-61 20 -101.5 36t-89 40t-79.5 50.5t-59 62t-41 80.5t-13 100q0 89 33.5 165t89 128t122.5 85t138 44v190h129v-180q192 -3 320 -60l-78 -254q-120 71 -242 76v-327q52 -16 88 -28t80 -31t73.5 -38.5t59.5 -47.5 t48 -59.5t29 -74t11 -92.5q0 -180 -104.5 -296.5t-284.5 -150.5v-233h-129v225q-147 5 -253.5 54t-161.5 112zM408 1022q0 -58 27.5 -93.5t90.5 -58.5v285q-53 -10 -85.5 -43.5t-32.5 -89.5zM655 250q57 6 90 47t33 98q0 61 -27.5 99t-95.5 67v-311z" />
<glyph unicode="%" horiz-adv-x="2035" d="M74 991q0 201 110 322t285 121q170 0 276.5 -114.5t106.5 -309.5q0 -213 -110.5 -334t-301.5 -121q-176 0 -271 117t-95 319zM362 1055q0 -271 111 -271q37 0 63.5 36.5t26.5 119.5q0 268 -114 268q-35 0 -61 -37t-26 -116zM657 35l525 1399l194 -66l-526 -1399z M1184 406q0 201 109 321.5t284 120.5q170 0 277.5 -114.5t107.5 -309.5q0 -213 -110.5 -334t-301.5 -121q-175 0 -270.5 117.5t-95.5 319.5zM1483 467q0 -268 110 -268q37 0 63.5 36t26.5 117q0 269 -114 269q-34 0 -60 -37.5t-26 -116.5z" />
<glyph unicode="&#x26;" horiz-adv-x="1417" d="M43 356q0 289 293 432q-92 150 -92 281q0 114 59 198.5t153 125.5t208 41q166 0 267 -85.5t101 -226.5q0 -131 -94.5 -232t-237.5 -159q32 -60 110.5 -157t145.5 -164q48 55 75.5 139.5t27.5 181.5q0 29 -6 98h272l23 -26q0 -305 -209 -541q123 -111 227 -180l-184 -221 q-53 34 -141 104.5t-140 120.5q-72 -51 -180.5 -84t-235.5 -33q-202 0 -322 101t-120 286zM356 414q0 -103 60 -160t153 -57q41 0 87 15t77 38q-67 67 -156 179.5t-126 180.5q-43 -31 -69 -84t-26 -112zM537 1096q0 -110 61 -205q64 27 112 83.5t48 129.5q0 66 -28 103.5 t-79 37.5t-82.5 -42t-31.5 -107z" />
<glyph unicode="'" horiz-adv-x="509" d="M86 1403l293 31l45 -35l-64 -522l-176 -62l-45 33z" />
<glyph unicode="(" horiz-adv-x="774" d="M164 592q0 270 60 497t182 463l266 -125q-94 -206 -139.5 -395.5t-45.5 -439.5q0 -252 47 -450.5t138 -391.5l-271 -131q-126 257 -181.5 478.5t-55.5 494.5z" />
<glyph unicode=")" horiz-adv-x="774" d="M102 -250q91 193 138 391.5t47 450.5q0 250 -45.5 439.5t-139.5 395.5l267 125q121 -236 181 -463t60 -497q0 -273 -55.5 -494.5t-181.5 -478.5z" />
<glyph unicode="*" horiz-adv-x="913" d="M106 1081l37 193l232 -92l8 6l-25 252h197l-27 -252l7 -6l235 92l37 -193l-246 -14l-4 -12l184 -189l-157 -114l-121 233h-12l-121 -233l-158 116l184 185l-4 14z" />
<glyph unicode="+" d="M180 582v227h273v287h241v-287h273v-227h-273v-287h-241v287h-273z" />
<glyph unicode="," horiz-adv-x="573" d="M41 -260q46 98 74 228t28 268l265 79l43 -34q-3 -135 -86.5 -303t-200.5 -289z" />
<glyph unicode="-" horiz-adv-x="768" d="M92 412v254h584v-254h-584z" />
<glyph unicode="." horiz-adv-x="548" d="M88 182q20 58 82 107t125 57q60 -21 108.5 -82.5t57.5 -130.5q-22 -61 -82 -108t-127 -56q-56 22 -105.5 86t-58.5 127z" />
<glyph unicode="/" horiz-adv-x="849" d="M-45 -57l676 1595l264 -108l-676 -1594z" />
<glyph unicode="0" d="M51 696q0 346 143.5 538.5t389.5 192.5q236 0 374 -182.5t138 -515.5q0 -371 -142.5 -562.5t-408.5 -191.5q-241 0 -367.5 187t-126.5 534zM371 815q0 -283 53.5 -426t167.5 -143q89 0 136.5 78t47.5 272q0 271 -56.5 419t-170.5 148q-82 0 -130 -83.5t-48 -264.5z" />
<glyph unicode="1" d="M117 1032l86 275l594 137v-1444h-316v1096l-340 -84z" />
<glyph unicode="2" d="M57 90l277 348q84 106 126.5 162t87 119t62.5 101t29.5 79t11.5 82q0 92 -51.5 144.5t-138.5 52.5q-138 0 -275 -107l-127 213q79 60 195 105t264 45q205 0 329 -99t124 -295q0 -79 -19 -151t-62.5 -148.5t-97.5 -148t-141 -174.5l-141 -166h510l-64 -252h-862z" />
<glyph unicode="3" d="M59 78l97 237q136 -100 321 -100q110 0 178 56.5t68 162.5q0 118 -79.5 176t-211.5 58q-102 0 -176 -17l-25 45l332 455h-420l-22 31l63 221h791l24 -43l-352 -483q78 -6 145 -31t126.5 -73t94 -131t34.5 -193q0 -96 -32.5 -177t-87 -136t-127.5 -93.5t-153 -56 t-164 -17.5q-274 0 -424 109z" />
<glyph unicode="4" d="M25 215v182l581 1004l332 43v-991h160l-70 -238h-90v-215h-285v215h-628zM334 453h319v516h-24z" />
<glyph unicode="5" d="M59 70l97 237q43 -27 76.5 -43.5t100 -32.5t142.5 -16q118 0 186 62t68 157q0 244 -301 244q-156 0 -283 -35l-30 27l137 733h715l22 -27l-65 -225h-432l-46 -240q58 13 140 13q213 0 340 -111.5t127 -327.5q0 -243 -158.5 -379.5t-421.5 -136.5q-142 0 -248 29.5 t-166 71.5z" />
<glyph unicode="6" d="M57 633q0 133 21.5 249t71 218.5t123.5 175t184.5 114.5t249.5 42q183 0 331 -62l-71 -240q-132 56 -256 56q-160 0 -245.5 -99.5t-88.5 -291.5l8 -7q120 111 305 111q85 0 155.5 -24t126 -73t87 -132t31.5 -193q0 -245 -140 -376.5t-375 -131.5q-142 0 -244.5 50.5 t-161 143t-85.5 208.5t-27 262zM377 563q0 -354 203 -354q92 0 142 66.5t50 166.5q0 101 -44.5 164.5t-137.5 63.5q-123 0 -213 -107z" />
<glyph unicode="7" d="M33 1182l65 221h994l16 -25l-526 -1378h-344l450 1151h-631z" />
<glyph unicode="8" d="M51 365q0 142 74 238.5t192 141.5v9q-103 29 -164 108t-61 199q0 169 134.5 271t351.5 102q222 0 349.5 -99t127.5 -250q0 -236 -236 -331v-9q277 -81 277 -358q0 -203 -143 -310.5t-388 -107.5q-239 0 -376.5 100.5t-137.5 295.5zM365 430q0 -101 58.5 -158t156.5 -57 q95 0 148.5 56.5t53.5 150.5q0 108 -57.5 166.5t-155.5 58.5q-89 0 -146.5 -60t-57.5 -157zM395 1014q0 -82 50 -130t133 -48q78 0 126 50t48 130t-48.5 126t-132.5 46q-78 0 -127 -50t-49 -124z" />
<glyph unicode="9" d="M51 924q0 245 138.5 376.5t373.5 131.5q114 0 203 -33.5t148 -92.5t97.5 -143.5t55 -181.5t16.5 -213q0 -133 -21.5 -249t-71 -218.5t-123.5 -175t-185 -114.5t-250 -42q-195 0 -317 56l67 249q127 -59 256 -59q152 0 237.5 100.5t88.5 290.5l-8 6q-115 -110 -305 -110 q-85 0 -155.5 24t-126 73t-87 132t-31.5 193zM369 958q0 -100 45.5 -163.5t136.5 -63.5q122 0 213 109q0 162 -50 257t-153 95q-92 0 -142 -67t-50 -167z" />
<glyph unicode=":" horiz-adv-x="548" d="M88 180q20 59 82 109t125 57q60 -21 108.5 -82.5t57.5 -130.5q-22 -61 -82 -108t-127 -56q-56 22 -105.5 85t-58.5 126zM88 788q20 59 82 109t125 57q60 -21 108.5 -82.5t57.5 -130.5q-22 -61 -82 -107.5t-127 -55.5q-56 22 -105.5 85t-58.5 125z" />
<glyph unicode=";" horiz-adv-x="589" d="M41 -260q46 98 74 228t28 268l265 79l43 -34q-3 -135 -86.5 -303t-200.5 -289zM96 788q20 59 81 109t124 57q60 -21 108.5 -82.5t57.5 -130.5q-22 -61 -82 -107.5t-127 -55.5q-56 22 -104.5 84.5t-57.5 125.5z" />
<glyph unicode="&#x3c;" d="M190 672v12l562 514l163 -178l-372 -338l375 -348l-170 -178z" />
<glyph unicode="=" d="M168 356v252h813v-252h-813zM168 754v252h813v-252h-813z" />
<glyph unicode="&#x3e;" d="M231 334l375 348l-375 338l166 178l561 -514v-12l-557 -516z" />
<glyph unicode="?" horiz-adv-x="993" d="M68 1358q50 29 147 52.5t229 23.5q69 0 131 -8t130 -32.5t116.5 -64t80.5 -107.5t32 -157q0 -185 -101.5 -300t-267.5 -149l6 -141l-239 -55l-109 303l8 18q200 15 289.5 78.5t89.5 179.5q0 64 -34.5 106t-83 57.5t-109.5 15.5q-70 0 -133.5 -15.5t-99.5 -36.5zM215 168 q21 60 81 103.5t138 50.5q68 -15 119.5 -71.5t64.5 -129.5q-27 -65 -87 -104t-140 -48q-63 14 -114.5 71.5t-61.5 127.5z" />
<glyph unicode="@" horiz-adv-x="1523" d="M78 659q0 216 95.5 393.5t263.5 279.5t374 102q293 0 464 -165.5t171 -447.5q0 -234 -112 -357.5t-306 -123.5q-90 0 -131 18q-17 20 -31.5 53.5t-17.5 59.5h-6q-125 -131 -262 -131q-61 0 -98.5 71t-37.5 197q0 198 110.5 334.5t268.5 136.5q68 0 132.5 -20.5 t105.5 -50.5l-31 -351q-4 -54 -4 -77q0 -45 11.5 -65.5t45.5 -20.5q81 0 134 80.5t53 234.5q0 208 -122.5 337.5t-340.5 129.5q-235 0 -387 -169.5t-152 -442.5q0 -250 139.5 -398.5t374.5 -148.5q147 0 299 61l39 -149q-159 -70 -346 -70q-318 0 -507 189.5t-189 510.5z M639 635q0 -119 59 -119q69 0 144 98l28 314q-22 16 -75 16q-54 0 -105 -84t-51 -225z" />
<glyph unicode="A" horiz-adv-x="1253" d="M-10 0l497 1368l269 70l512 -1438h-324l-110 303l-457 -37l-88 -266h-299zM453 508l299 29l-152 421z" />
<glyph unicode="B" horiz-adv-x="1200" d="M172 0v1403q227 31 393 31q85 0 152 -6.5t137.5 -26t117.5 -53t77 -91.5t30 -137q0 -156 -87 -256.5t-232 -130.5q360 -74 360 -360q0 -198 -149.5 -301t-425.5 -103q-228 0 -373 31zM489 205q24 -8 84 -8q92 0 156 54.5t64 147.5q0 79 -45 132.5t-111 75.5t-148 22v-424 zM489 817q121 0 198 61.5t77 165.5q0 48 -16 82t-43.5 51t-55.5 24t-61 7q-71 0 -99 -14v-377z" />
<glyph unicode="C" horiz-adv-x="1155" d="M80 662q0 155 41 283.5t111.5 218t166.5 151t205.5 90.5t229.5 29q143 0 258 -35l-60 -269q-88 31 -194 31q-52 0 -105.5 -12t-111.5 -44.5t-102 -81t-72.5 -129.5t-28.5 -183q0 -110 27.5 -195.5t70.5 -135.5t101 -82.5t112 -44t111 -11.5q67 0 142.5 15t119.5 38 l18 -10l-55 -277q-119 -39 -295 -39q-114 0 -214.5 24t-188.5 77.5t-151 133t-99.5 196.5t-36.5 262z" />
<glyph unicode="D" horiz-adv-x="1433" d="M172 0v1403q68 11 181 21t192 10q135 0 250.5 -19.5t220.5 -66t178.5 -118t116.5 -182.5t43 -253q0 -795 -897 -795h-285zM500 246q86 0 159.5 14t141.5 48.5t116 88.5t76.5 138t28.5 192q0 99 -25.5 179t-68 132.5t-101 88t-122 50.5t-132.5 15q-9 0 -73 -8v-938z" />
<glyph unicode="E" horiz-adv-x="1085" d="M172 0v1403h791l-21 -246h-444v-317h442l-22 -246h-420v-348h506l-37 -246h-795z" />
<glyph unicode="F" horiz-adv-x="1024" d="M172 0v1403h793l-23 -246h-444v-358h444l-24 -246h-420v-553h-326z" />
<glyph unicode="G" horiz-adv-x="1314" d="M80 662q0 158 42 288t114.5 219t173 149.5t214 88t240.5 27.5q169 0 301 -35l-59 -273q-107 35 -238 35q-58 0 -115 -11.5t-119 -43t-108.5 -80t-77 -130t-30.5 -185.5q0 -112 27 -200t68.5 -140t96 -85t103 -45t96.5 -12q59 0 98 11v454h320v-669q-54 -22 -168 -39 t-266 -17q-120 0 -224.5 24t-195 77.5t-155 133t-101.5 196.5t-37 262z" />
<glyph unicode="H" horiz-adv-x="1495" d="M172 0v1403h328v-561l495 51v510h328v-1403h-328v621l-495 -52v-569h-328z" />
<glyph unicode="I" horiz-adv-x="671" d="M172 0v1403h328v-1403h-328z" />
<glyph unicode="J" horiz-adv-x="667" d="M8 -203q66 47 99 96.5t47 129.5t14 221v1159h328v-1167q0 -252 -54 -391.5t-209 -256.5z" />
<glyph unicode="K" horiz-adv-x="1333" d="M172 0v1403h328v-1403h-328zM514 721l422 682h354l-459 -678l502 -725h-397z" />
<glyph unicode="L" horiz-adv-x="1013" d="M172 0v1403h328v-1157h493l-39 -246h-782z" />
<glyph unicode="M" horiz-adv-x="1863" d="M68 0l274 1366l283 72l143 -414q87 -255 160 -518h10l315 860l289 72l254 -1438h-340l-61 434q-40 293 -58 459h-12l-309 -842l-189 -31l-135 355q-117 307 -178 518h-12l-113 -893h-321z" />
<glyph unicode="N" horiz-adv-x="1503" d="M172 0v1358l270 80l275 -412q161 -242 315 -510l8 4l-36 883h327v-1403h-278l-242 354q-17 25 -107.5 157t-147 215.5t-87.5 135.5l-8 -4l39 -858h-328z" />
<glyph unicode="O" horiz-adv-x="1478" d="M80 696q0 144 36.5 266t99.5 208t148.5 146t183 89t202.5 29q104 0 199.5 -27.5t177.5 -85t142.5 -139.5t95 -198.5t34.5 -254.5q0 -190 -52 -336.5t-146 -238.5t-219 -138.5t-277 -46.5q-132 0 -244 45t-198 132.5t-134.5 228.5t-48.5 321zM418 797q0 -246 94 -402.5 t250 -156.5q58 0 109.5 21t95 64t69 117.5t25.5 171.5q0 247 -94.5 401t-259.5 154q-123 0 -206 -103.5t-83 -266.5z" />
<glyph unicode="P" horiz-adv-x="1165" d="M172 0v1403q234 31 389 31q100 0 179.5 -10.5t153 -38.5t123 -73.5t78.5 -117.5t29 -168q0 -127 -49.5 -226.5t-135.5 -161.5t-197.5 -94t-241.5 -32v-512h-328zM500 748q62 0 114.5 12t97 39t70 75.5t25.5 114.5q0 62 -18.5 107t-50 68.5t-66.5 33.5t-76 10 q-61 0 -96 -10v-450z" />
<glyph unicode="Q" horiz-adv-x="1478" d="M80 696q0 144 36.5 266t99.5 208t148.5 146t183 89t202.5 29q104 0 199.5 -27.5t177.5 -85t142.5 -139.5t95 -198.5t34.5 -254.5q0 -443 -281 -643l176 -225l-325 -162l-99 287q-83 -17 -165 -17q-132 0 -244 45t-198 132.5t-134.5 228.5t-48.5 321zM418 799 q0 -252 95.5 -406.5t258.5 -154.5q51 0 100 20.5t92.5 63t70 118t26.5 174.5q0 253 -95 404t-259 151q-119 0 -204 -101.5t-85 -268.5z" />
<glyph unicode="R" horiz-adv-x="1251" d="M172 0v1403q183 31 395 31q99 0 177.5 -10.5t151.5 -38.5t121.5 -73t77.5 -117.5t29 -168.5q0 -87 -23 -160t-61.5 -121t-78 -79t-84.5 -52q94 -72 206.5 -266.5t153.5 -347.5h-371q-21 86 -67 197t-112.5 217.5t-125.5 146.5q-5 0 -32 -1t-29 -1v-559h-328zM500 760h20 q52 0 94 8q52 10 97 36t70.5 75.5t25.5 119.5q0 54 -16.5 94t-39.5 61t-55 34t-56 16.5t-50 3.5q-50 0 -90 -10v-438z" />
<glyph unicode="S" horiz-adv-x="1034" d="M35 74l115 276q181 -110 317 -110q77 0 121.5 40t44.5 109q0 73 -53.5 116.5t-190.5 98.5q-72 29 -121.5 58t-94 71t-67 100t-22.5 132q0 118 39.5 209.5t108.5 147t157.5 84t192.5 28.5q171 0 319 -56l-78 -270q-149 61 -256 61q-64 0 -106.5 -34.5t-42.5 -102.5 t50.5 -110.5t176.5 -92.5q52 -21 84 -35.5t74 -38.5t67.5 -50.5t50 -62.5t35.5 -83.5t11 -105.5q0 -236 -145 -360t-396 -124q-217 0 -391 105z" />
<glyph unicode="T" horiz-adv-x="1069" d="M8 1163l23 240h1030l-23 -240h-340v-1163h-327v1163h-363z" />
<glyph unicode="U" horiz-adv-x="1478" d="M172 473v930h328v-825q0 -167 53.5 -237.5t173.5 -70.5q143 0 252 95v1038h328v-1403h-328v150q-206 -181 -451 -181q-356 0 -356 504z" />
<glyph unicode="V" horiz-adv-x="1310" d="M10 1403h359l141 -451q89 -284 164 -559h12l277 1010h337l-489 -1403h-344z" />
<glyph unicode="W" horiz-adv-x="1925" d="M10 1403h340l84 -377q60 -264 123 -625h12l252 934l277 56l139 -443q82 -261 152 -547h12l164 1002h350l-383 -1403h-328l-108 358q-71 233 -138 535h-10l-260 -893h-326z" />
<glyph unicode="X" horiz-adv-x="1316" d="M10 0l467 688l-452 715h401l266 -428l226 428h360l-428 -674l457 -729h-398l-276 440l-248 -440h-375z" />
<glyph unicode="Y" horiz-adv-x="1220" d="M-20 1403h370l291 -553l258 553h342l-477 -850v-553h-328v539z" />
<glyph unicode="Z" horiz-adv-x="1071" d="M20 121l590 1036h-538l39 246h827l98 -139l-633 -1018h617l-39 -246h-870z" />
<glyph unicode="[" horiz-adv-x="823" d="M217 -315v1804h504v-209h-186v-1391h186v-204h-504z" />
<glyph unicode="\" horiz-adv-x="864" d="M-37 1401l266 117l672 -1575l-276 -109z" />
<glyph unicode="]" horiz-adv-x="823" d="M102 -111h189v1391h-189v209h504v-1804h-504v204z" />
<glyph unicode="^" horiz-adv-x="972" d="M18 852l461 582h13l462 -580l-186 -154l-291 363l-293 -363z" />
<glyph unicode="_" horiz-adv-x="964" d="M0 -102h965v-234h-965v234z" />
<glyph unicode="`" horiz-adv-x="1017" d="M231 1389l125 161l379 -303l-84 -123l-415 219z" />
<glyph unicode="a" horiz-adv-x="974" d="M47 203q0 86 28.5 152.5t75 109.5t116.5 73.5t141 45.5t161 24q0 172 -137 172q-118 0 -250 -75l-78 188q83 53 213.5 99t272.5 46q65 0 114 -19.5t78 -51.5t46.5 -79t23.5 -95t6 -107v-369q0 -166 55 -249l-278 -99q-21 20 -40 59.5t-22 69.5l-10 4q-59 -58 -143 -95.5 t-164 -37.5q-102 0 -155.5 65.5t-53.5 168.5zM319 291q0 -45 30.5 -74t78.5 -29q75 0 141 66v162q-25 10 -84 10q-69 0 -117.5 -35t-48.5 -100z" />
<glyph unicode="b" d="M131 55v1442l303 90v-676l8 -4q153 131 340 131q129 0 214 -127.5t85 -318.5q0 -136 -34 -248.5t-100 -197t-169.5 -131t-236.5 -46.5q-127 0 -220 21.5t-190 64.5zM434 219q52 -31 123 -31q101 0 157 80.5t56 235.5q0 132 -49 200t-139 68q-36 0 -77 -14.5t-71 -40.5 v-498z" />
<glyph unicode="c" horiz-adv-x="907" d="M66 492q0 242 148.5 393t375.5 151q155 0 256 -43l-58 -248q-76 37 -167 37q-107 0 -174.5 -63t-67.5 -197q0 -138 69 -218.5t191 -80.5q105 0 184 45l47 -241q-129 -58 -315 -58q-129 0 -224.5 38t-152.5 109t-84.5 164.5t-27.5 211.5z" />
<glyph unicode="d" horiz-adv-x="1136" d="M66 416q0 132 32 242.5t95.5 195t165 131.5t233.5 47q60 0 121 -14v479l303 90v-1265q0 -171 55 -254l-293 -99q-23 21 -40.5 58t-22.5 69l-10 6q-160 -133 -343 -133q-128 0 -212 127.5t-84 319.5zM377 502q0 -123 46.5 -194.5t135.5 -71.5q86 0 154 55v489 q-52 33 -117 33q-101 0 -160 -83t-59 -228z" />
<glyph unicode="e" horiz-adv-x="1036" d="M66 487q0 246 128.5 398.5t342.5 152.5q108 0 192.5 -42.5t136.5 -117.5t78.5 -172.5t26.5 -213.5l-27 -27h-573q10 -123 93.5 -189.5t205.5 -66.5q59 0 130.5 16.5t117.5 38.5l53 -225q-58 -29 -154.5 -49.5t-204.5 -20.5q-255 0 -400.5 136t-145.5 382zM371 653h301 q0 87 -39.5 137t-102.5 50q-69 0 -111 -50t-48 -137z" />
<glyph unicode="f" horiz-adv-x="638" d="M10 784l64 224h67v43q0 114 32 212t96 174.5t169.5 120.5t241.5 44l31 -242q-133 0 -200 -82t-67 -229v-41h267l-56 -224h-211v-784h-303v784h-131z" />
<glyph unicode="g" horiz-adv-x="1026" d="M33 -186q0 63 41 124.5t100 108.5q-34 21 -58 56.5t-28 76.5q18 44 64.5 102t91.5 95q-25 11 -50 31t-53.5 53.5t-46.5 87t-18 117.5q0 89 34.5 161.5t92 117.5t130 69t152.5 24q150 0 234 -51q44 42 124.5 80.5t143.5 42.5l31 -219q-36 0 -94 -9.5t-90 -21.5 q53 -79 53 -186q0 -83 -33 -148t-89.5 -104.5t-126 -59.5t-146.5 -20q-59 0 -84 4q-15 -13 -27 -34.5t-12 -37.5t8.5 -24t57.5 -14.5t151 -8.5q60 -1 105.5 -4.5t98.5 -12t90.5 -25t70 -41t49 -62.5t16.5 -88q0 -90 -34.5 -163t-90 -120t-130.5 -78.5t-153 -45t-159 -13.5 q-181 0 -298.5 70.5t-117.5 169.5zM297 -94q0 -59 53.5 -91t155.5 -32q97 0 162 32t65 93q0 20 -7.5 34.5t-28 25t-48.5 16.5t-76 10t-102.5 5t-136.5 1q-37 -41 -37 -94zM344 711q0 -74 41 -122t113 -48q62 0 93.5 33t31.5 85q0 81 -42 129t-110 48q-55 0 -91 -34t-36 -91z " />
<glyph unicode="h" horiz-adv-x="1179" d="M131 0v1497l303 90v-678l6 -2q77 58 172.5 94.5t190.5 36.5q69 0 119 -27.5t76.5 -75.5t38.5 -103t12 -121v-711h-304v592q0 94 -33 137t-108 43q-95 0 -170 -55v-717h-303z" />
<glyph unicode="i" horiz-adv-x="577" d="M80 1382v66l336 96l39 -39l-56 -286l-129 -45zM131 0v948l303 90v-1038h-303z" />
<glyph unicode="j" horiz-adv-x="571" d="M-35 -219q94 61 131 144t37 241v782l303 90v-876q0 -151 -30.5 -257.5t-85.5 -177.5t-150 -141zM88 1382v66l334 96l41 -39l-55 -286l-129 -45z" />
<glyph unicode="k" horiz-adv-x="1089" d="M131 0v1497l303 90v-1587h-303zM442 520l303 488h342l-352 -488l381 -520h-360z" />
<glyph unicode="l" horiz-adv-x="565" d="M131 0v1497l303 90v-1587h-303z" />
<glyph unicode="m" horiz-adv-x="1730" d="M88 944l297 94q18 -20 33 -57t20 -72l8 -4q75 59 167.5 96t177.5 37q76 0 126 -38t74 -91l8 -4q171 133 359 133q67 0 115.5 -27t75 -74.5t38.5 -103t12 -122.5v-711h-303v608q0 82 -30 123t-99 41q-79 0 -149 -51q2 -10 2 -121v-600h-303v608q0 81 -27.5 122.5 t-99.5 41.5q-76 0 -150 -55v-717h-303v686q0 171 -49 258z" />
<glyph unicode="n" horiz-adv-x="1185" d="M88 944l297 94q18 -21 33 -58.5t20 -70.5l8 -4q181 133 363 133q69 0 119 -27.5t76.5 -75.5t38.5 -103t12 -121v-711h-303v592q0 94 -33 137t-107 43q-97 0 -172 -55v-717h-303v686q0 171 -49 258z" />
<glyph unicode="o" horiz-adv-x="1138" d="M66 510q0 159 68.5 280.5t185 184.5t262.5 63q212 0 351.5 -143t139.5 -383q0 -260 -139 -401.5t-367 -141.5q-226 0 -363.5 144t-137.5 397zM369 563q0 -149 63 -244.5t158 -95.5q86 0 133 56t47 167q0 142 -59.5 240t-157.5 98q-84 0 -134 -62.5t-50 -158.5z" />
<glyph unicode="p" horiz-adv-x="1153" d="M88 944l295 94q19 -20 34.5 -57.5t18.5 -69.5l8 -6q158 133 344 133q129 0 214 -127.5t85 -318.5q0 -131 -34 -242.5t-99 -195.5t-166.5 -131.5t-228.5 -47.5q-59 0 -119 13v-348l-303 -91v1137q0 171 -49 258zM438 227q19 -11 56 -21.5t67 -10.5q100 0 156.5 79.5 t56.5 231.5q0 132 -48 199t-138 67q-37 0 -80 -15.5t-70 -39.5v-490z" />
<glyph unicode="q" d="M66 416q0 135 34 247t100.5 196.5t174.5 131.5t248 47q226 0 393 -80v-1310l-303 -90v538l-8 4q-163 -131 -343 -131q-128 0 -212 127.5t-84 319.5zM377 514q0 -132 46 -205t142 -73q82 0 148 55v493q-55 35 -123 35q-100 0 -156.5 -80.5t-56.5 -224.5z" />
<glyph unicode="r" horiz-adv-x="778" d="M88 944l297 94q47 -54 53 -157l6 -4q114 149 304 161l10 -336l-17 -10q-71 51 -163 51q-91 0 -138 -53v-690h-303v686q0 171 -49 258z" />
<glyph unicode="s" horiz-adv-x="872" d="M51 57l90 211q130 -96 273 -96q46 0 78 26.5t32 65.5q0 43 -35.5 69.5t-132.5 57.5q-59 19 -103 41t-85.5 56t-63.5 84.5t-22 115.5q0 89 35 158t93.5 110t129.5 61.5t149 20.5q166 0 273 -65l-76 -215q-40 26 -102.5 49.5t-122.5 23.5q-44 0 -70 -22.5t-26 -60.5 q0 -47 28.5 -71t124.5 -56q56 -19 94 -34.5t79 -40.5t65 -53t39.5 -69t15.5 -92q0 -75 -23 -136.5t-62.5 -103t-94 -70t-116 -41t-130.5 -12.5q-208 0 -334 88z" />
<glyph unicode="t" horiz-adv-x="778" d="M10 784l56 224h77v237l260 78l43 -31v-284h308l-52 -224h-256v-360q0 -115 35.5 -158t110.5 -43q60 0 133 27l45 -236q-39 -15 -129 -30t-160 -15q-172 0 -255 105t-83 319v391h-133z" />
<glyph unicode="u" horiz-adv-x="1171" d="M131 346v602l303 90v-624q0 -93 27.5 -135.5t101.5 -42.5q84 0 162 55v657l303 90v-716q0 -171 55 -254l-292 -99q-49 49 -64 129l-8 4q-177 -133 -352 -133q-62 0 -107.5 25t-69.5 61t-38 91t-17.5 99t-3.5 101z" />
<glyph unicode="v" horiz-adv-x="1038" d="M12 948l301 90l209 -747h10l197 717h309l-376 -1008h-353z" />
<glyph unicode="w" horiz-adv-x="1554" d="M20 948l299 90l68 -305q29 -133 84 -454h10l162 645l262 80l80 -271q53 -179 119 -454h10l129 729h305l-297 -1008h-313l-70 223q-40 127 -98 389h-10l-176 -612h-314z" />
<glyph unicode="x" horiz-adv-x="1009" d="M0 0l328 500l-287 436l285 102l211 -317l163 287h299l-333 -488l344 -520h-353l-188 281l-158 -281h-311z" />
<glyph unicode="y" horiz-adv-x="1081" d="M18 946l306 92l227 -772h6l215 742h309l-557 -1459l-293 78l207 373h-116z" />
<glyph unicode="z" horiz-adv-x="821" d="M0 104l403 676h-366l53 228h612l84 -117l-456 -664h491l-53 -227h-690z" />
<glyph unicode="{" horiz-adv-x="880" d="M92 522v137q209 64 209 213q0 46 -6 95l-19 186q-6 69 -6 92q0 120 83 192t237 72q72 0 219 -6v-160q-121 0 -173 -45.5t-52 -148.5q0 -45 4 -78l16 -166q6 -52 6 -90q0 -82 -41.5 -137.5t-150.5 -85.5q114 -42 154 -102.5t40 -145.5q0 -40 -6 -92l-18 -182 q-4 -33 -4 -88q0 -99 53 -145t172 -46v-160q-102 -4 -219 -4q-154 0 -237 72t-83 192q0 22 6 91l19 217q6 50 6 92q0 84 -57.5 143.5t-151.5 87.5z" />
<glyph unicode="|" horiz-adv-x="765" d="M233 -428v1884h299v-1884h-299z" />
<glyph unicode="}" horiz-adv-x="880" d="M72 -209q119 0 171 46t52 145q0 28 -4 94l-17 176q-6 53 -6 92q0 55 13 95.5t58 82t124 70.5q-109 30 -151 85.5t-42 137.5q0 37 6 90l15 156q4 66 4 88q0 104 -51 149t-172 45v160q147 6 219 6q154 0 236.5 -72t82.5 -192q0 -23 -6 -92l-18 -186q-6 -49 -6 -95 q0 -149 208 -213v-137q-94 -28 -151 -87.5t-57 -143.5q0 -21 3 -53.5t3 -38.5l18 -209q6 -69 6 -99q0 -120 -82.5 -192t-236.5 -72q-117 0 -219 4v160z" />
<glyph unicode="~" horiz-adv-x="1118" d="M31 989q37 74 76.5 127.5t72.5 82.5t70 45.5t63.5 21t57.5 4.5q81 0 223 -60q116 -49 190 -49q104 0 185 101l118 -80q-36 -71 -75 -123t-70.5 -80t-66.5 -44t-59 -20t-52 -4q-77 0 -229 62q-132 51 -211 51q-61 0 -100 -29t-81 -86z" />
<glyph unicode="&#xa1;" horiz-adv-x="655" d="M127 881q27 65 87 103.5t140 47.5q63 -14 113.5 -71t60.5 -127q-21 -60 -80 -103.5t-137 -50.5q-68 15 -119.5 71.5t-64.5 129.5zM152 -416l49 920l227 55l31 -22l45 -906l-326 -67z" />
<glyph unicode="&#xa2;" horiz-adv-x="1064" d="M90 606q0 106 36 199t98 160t144.5 110t174.5 55v170h129v-167q97 -3 186 -41l-57 -236q-65 29 -129 35v-543q40 0 87.5 12.5t76.5 26.5l47 -229q-43 -21 -104.5 -35.5t-106.5 -16.5v-192h-129v188q-147 7 -251 75.5t-153 178t-49 250.5zM379 637q0 -111 44 -183t120 -94 v523q-72 -20 -118 -83.5t-46 -162.5z" />
<glyph unicode="&#xa3;" d="M61 0l52 254q51 8 88.5 30.5t56.5 52t27 58.5t8 58q0 70 -21 178h-161l53 172h69q-20 83 -20 162q0 212 143.5 335t374.5 123q153 0 279 -41l-70 -262q-104 45 -217 45q-201 0 -201 -196q0 -88 21 -166h434l-47 -172h-348q20 -90 20 -166q0 -67 -24.5 -120.5t-73.5 -80.5 l4 -10h588l-58 -254h-977z" />
<glyph unicode="&#xa4;" d="M160 387l106 107q-51 72 -51 184q0 102 53 182l-106 107l123 118l104 -104q78 55 182 55q107 0 185 -55l106 106l125 -118l-110 -109q53 -77 53 -182t-53 -184l108 -109l-123 -117l-106 105q-83 -56 -185 -56q-99 0 -182 56l-106 -107zM412 676q0 -69 47 -117.5 t112 -48.5q66 0 114 49t48 119t-48.5 118t-113.5 48t-112 -49.5t-47 -118.5z" />
<glyph unicode="&#xa5;" d="M35 1233l260 121l280 -525l277 527l258 -125l-301 -518h217l-43 -160h-266v-135h309l-43 -160h-266v-258h-318v258h-319l51 160h268v135h-319l51 160h184z" />
<glyph unicode="&#xa6;" horiz-adv-x="768" d="M233 305h302v-733h-302v733zM233 723v733h302v-733h-302z" />
<glyph unicode="&#xa7;" horiz-adv-x="1148" d="M61 516q0 104 52.5 185t130.5 124q-99 71 -99 203q0 181 137.5 293.5t342.5 112.5q115 0 213 -25.5t157 -58.5l-102 -246q-160 82 -295 82q-62 0 -99.5 -30t-37.5 -83q0 -51 63 -88.5t221 -89.5q171 -56 256.5 -136t85.5 -210q0 -194 -174 -311q91 -76 91 -203 q0 -181 -140 -303.5t-340 -122.5q-283 0 -452 203l184 194q143 -149 285 -149q67 0 106 34.5t39 90.5q0 53 -58 97t-220 105q-179 68 -263 144t-84 188zM367 563q0 -31 11 -54t28.5 -40.5t59.5 -36.5t84 -33.5t122 -40.5q42 20 75 62t33 82q0 74 -63.5 117.5t-224.5 89.5 q-46 -13 -85.5 -56.5t-39.5 -89.5z" />
<glyph unicode="&#xa8;" horiz-adv-x="1030" d="M166 1315q0 62 42 104.5t103 42.5t101.5 -42.5t40.5 -104.5t-40.5 -105t-101.5 -43t-103 43t-42 105zM580 1315q0 62 40 104.5t101 42.5t103 -42.5t42 -104.5t-42 -105t-103 -43t-101 43t-40 105z" />
<glyph unicode="&#xa9;" horiz-adv-x="1683" d="M102 698q0 160 57 297.5t155.5 233.5t235 150.5t292.5 54.5q221 0 388 -88.5t259 -255t92 -390.5q0 -156 -55 -291.5t-151.5 -232t-234 -152t-296.5 -55.5q-219 0 -388 92t-261.5 258t-92.5 379zM252 694q0 -258 166 -424t426 -166t424 166t164 428q0 174 -73 310 t-207.5 212t-307.5 76q-264 0 -428 -167.5t-164 -434.5zM436 680q0 84 21.5 154.5t58.5 118.5t82 84.5t96 56.5t97 29.5t88 9.5q151 0 249 -62l-71 -178q-76 51 -183 51q-34 0 -70 -11.5t-73.5 -36t-61.5 -74t-24 -115.5q0 -56 14 -100.5t36.5 -72t53 -45.5t60.5 -25t63 -7 q113 0 246 78l6 -191q-123 -76 -282 -76q-115 0 -205.5 45t-145.5 139.5t-55 227.5z" />
<glyph unicode="&#xaa;" horiz-adv-x="698" d="M66 934q0 62 25.5 106.5t73 70t103 38.5t127.5 18q-5 45 -23.5 66.5t-58.5 21.5q-78 0 -161 -47l-54 135q153 91 334 91q48 0 81 -17.5t50 -50t24 -69t7 -83.5v-215q0 -93 39 -151l-189 -68q-25 22 -43 74h-14q-34 -31 -85 -51.5t-97 -20.5q-67 0 -103 44t-36 108z M254 983q0 -33 16.5 -49t42.5 -16q43 0 82 28v117q-10 2 -49 2t-65.5 -20.5t-26.5 -61.5z" />
<glyph unicode="&#xab;" horiz-adv-x="1003" d="M43 485l322 371l143 -119l-223 -252l223 -247l-146 -119zM459 485l321 371l142 -119l-222 -252l222 -247l-144 -119z" />
<glyph unicode="&#xac;" d="M166 602v248h815v-475h-240v227h-575z" />
<glyph unicode="&#xad;" horiz-adv-x="768" d="M92 412v254h584v-254h-584z" />
<glyph unicode="&#xae;" horiz-adv-x="755" d="M80 1137q0 133 84 215t215 82q135 0 216 -80.5t81 -216.5q0 -132 -83 -213.5t-212 -81.5q-137 0 -219 80t-82 215zM156 1137q0 -102 60.5 -166t162.5 -64q103 0 162 62.5t59 167.5t-59 167t-162 62q-104 0 -163.5 -61.5t-59.5 -167.5zM262 987v303q36 8 103 8 q133 0 133 -92q0 -65 -45 -88q20 -19 42 -58t31 -73h-96q-6 28 -24 63t-35 52h-23v-115h-86zM348 1159q28 0 48 10t20 33q0 35 -43 35q-5 0 -14 -1t-11 -1v-76z" />
<glyph unicode="&#xaf;" horiz-adv-x="980" d="M150 1278l69 166h594l18 -25l-69 -170h-594z" />
<glyph unicode="&#xb0;" horiz-adv-x="792" d="M109 1143q0 123 81.5 203.5t204.5 80.5q125 0 207 -80.5t82 -203.5t-83 -206t-206 -83q-124 0 -205 82.5t-81 206.5zM270 1143q0 -61 34.5 -100t90.5 -39q57 0 93 39.5t36 99.5q0 61 -35.5 99t-93.5 38q-56 0 -90.5 -38t-34.5 -99z" />
<glyph unicode="&#xb1;" horiz-adv-x="1148" d="M168 96v240h813v-240h-813zM180 729v227h273v287h241v-287h273v-227h-273v-285h-241v285h-273z" />
<glyph unicode="&#xb2;" horiz-adv-x="755" d="M31 1573q138 106 327 106q123 0 206 -61.5t83 -179.5q0 -49 -18.5 -100t-57 -106t-66 -89t-75.5 -88h254l-53 -213h-555l-37 92l180 203q110 123 145 173.5t35 90.5q0 30 -25 46.5t-59 16.5q-91 0 -176 -73z" />
<glyph unicode="&#xb3;" horiz-adv-x="755" d="M53 893l82 201q99 -74 197 -74q59 0 91 20t32 56q0 86 -136 86q-63 0 -133 -15l-39 72l179 199h-215l-23 30l51 181h512l37 -64l-186 -227q203 -53 203 -254q0 -74 -32.5 -132.5t-84.5 -92t-111 -51t-119 -17.5q-103 0 -173.5 20.5t-131.5 61.5z" />
<glyph unicode="&#xb4;" horiz-adv-x="1017" d="M270 1227l332 329l150 -161l-2 -45l-396 -230z" />
<glyph unicode="&#xb5;" horiz-adv-x="1179" d="M55 -252q84 327 84 598v602l303 90v-624q0 -93 27.5 -135.5t101.5 -42.5q84 0 162 55v657l303 90v-716q0 -169 56 -254l-293 -99q-49 49 -64 129l-8 4q-114 -133 -278 -133q-77 0 -113 45l-10 -8q0 -44 -6 -130.5t-13 -127.5h-252z" />
<glyph unicode="&#xb6;" horiz-adv-x="1202" d="M41 889q0 125 34.5 217.5t91 148.5t142.5 90t174.5 46t200.5 12h375v-1792l-137 -62v1760h-99v-1702l-137 -58v852q-87 0 -150.5 3.5t-135 15.5t-121 32.5t-97.5 57t-77 87.5t-46.5 124.5t-17.5 167.5zM502 854q0 -190 46 -267.5t138 -80.5v803q-184 -3 -184 -297v-158z " />
<glyph unicode="&#xb7;" horiz-adv-x="700" d="M152 780q22 65 86 117t133 59q66 -24 117 -87t61 -138q-23 -66 -87.5 -116.5t-135.5 -59.5q-61 24 -113 90.5t-61 134.5z" />
<glyph unicode="&#xb8;" horiz-adv-x="772" d="M260 -410l23 146q26 -15 75 -15q28 0 46 13.5t18 36.5q0 32 -29.5 50t-77.5 21l78 189h111l-39 -99q13 -2 28 -9t36 -22t35 -44t14 -68q0 -56 -22 -97t-60.5 -64.5t-84 -34.5t-98.5 -11q-33 0 -53 8z" />
<glyph unicode="&#xb9;" horiz-adv-x="655" d="M41 1384l68 207l423 99v-852h-243v569l-223 -55z" />
<glyph unicode="&#xba;" horiz-adv-x="749" d="M53 1112q0 145 94 233.5t234 88.5q135 0 225 -86t90 -234q0 -157 -89.5 -244.5t-233.5 -87.5q-143 0 -231.5 87.5t-88.5 242.5zM260 1143q0 -84 37.5 -135.5t89.5 -51.5q48 0 75 29.5t27 89.5q0 80 -35 132.5t-89 52.5q-49 0 -77 -32t-28 -85z" />
<glyph unicode="&#xbb;" horiz-adv-x="1003" d="M82 231l223 248l-223 252l143 119l322 -371l-322 -366zM498 231l223 248l-223 252l141 119l322 -371l-320 -366z" />
<glyph unicode="&#xbc;" horiz-adv-x="1708" d="M41 1139l68 207l423 98v-852h-243v569l-223 -55zM461 35l524 1399l195 -66l-527 -1399zM946 115v188l352 512l250 33v-541h109l-60 -192h-49v-115h-223v115h-379zM1192 307h133v203z" />
<glyph unicode="&#xbd;" horiz-adv-x="1769" d="M41 1139l68 207l423 98v-852h-243v569l-223 -55zM449 35l524 1399l194 -66l-526 -1399zM1044 731q139 107 328 107q123 0 206 -62t83 -180q0 -49 -18.5 -100t-57 -106t-66 -89t-75.5 -88h254l-53 -213h-555l-37 92l180 203q110 123 145 173.5t35 90.5q0 30 -25 47t-59 17 q-89 0 -176 -74z" />
<glyph unicode="&#xbe;" horiz-adv-x="1816" d="M53 647l82 201q99 -74 197 -74q59 0 91 20t32 56q0 86 -136 86q-67 0 -133 -14l-39 71l179 199h-215l-23 31l51 180h512l37 -64l-186 -227q203 -53 203 -254q0 -74 -32.5 -132.5t-84.5 -92t-111 -51t-119 -17.5q-103 0 -173.5 20.5t-131.5 61.5zM555 35l524 1399l195 -66 l-526 -1399zM1055 115v188l352 512l250 33v-541h108l-59 -192h-49v-115h-223v115h-379zM1300 307h134v203z" />
<glyph unicode="&#xbf;" horiz-adv-x="993" d="M59 -63q0 185 101.5 299.5t267.5 148.5l-6 141l240 56l108 -303l-8 -19q-200 -15 -289.5 -78.5t-89.5 -179.5q0 -49 19 -84.5t52.5 -55.5t72 -29t83.5 -9q70 0 134.5 15t99.5 36l82 -231q-50 -29 -147.5 -52.5t-229.5 -23.5q-69 0 -131 8t-130 32.5t-116.5 64 t-80.5 107.5t-32 157zM375 881q27 65 87 103.5t140 47.5q63 -14 114.5 -71t61.5 -127q-21 -60 -81 -103.5t-138 -50.5q-68 15 -119.5 71.5t-64.5 129.5z" />
<glyph unicode="&#xc0;" horiz-adv-x="1253" d="M-10 0l497 1368l269 70l512 -1438h-324l-110 303l-457 -37l-88 -266h-299zM332 1638l69 203l480 -176l-45 -152l-488 82zM453 508l299 29l-152 421z" />
<glyph unicode="&#xc1;" horiz-adv-x="1253" d="M-10 0l497 1368l269 70l512 -1438h-324l-110 303l-457 -37l-88 -266h-299zM383 1638l444 191l82 -213l-18 -43l-467 -68zM453 508l299 29l-152 421z" />
<glyph unicode="&#xc2;" horiz-adv-x="1253" d="M-10 0l497 1368l269 70l512 -1438h-324l-110 303l-457 -37l-88 -266h-299zM285 1608l336 268l348 -250l-74 -139l-281 117l-256 -117zM453 508l299 29l-152 421z" />
<glyph unicode="&#xc3;" horiz-adv-x="1253" d="M-10 0l497 1368l269 70l512 -1438h-324l-110 303l-457 -37l-88 -266h-299zM262 1587q50 126 108 179t128 53q63 0 151 -47q73 -39 125 -39q28 0 47.5 22t38.5 66l160 -66q-50 -128 -105 -182.5t-118 -54.5q-73 0 -158 47q-68 39 -127 39t-90 -88zM453 508l299 29 l-152 421z" />
<glyph unicode="&#xc4;" horiz-adv-x="1253" d="M-10 0l497 1368l269 70l512 -1438h-324l-110 303l-457 -37l-88 -266h-299zM268 1657q0 63 44.5 108t107.5 45t106 -45t43 -108t-43 -108.5t-106 -45.5t-107.5 45.5t-44.5 108.5zM453 508l299 29l-152 421zM700 1657q0 63 43.5 108t106.5 45t107 -45t44 -108t-44 -108.5 t-107 -45.5t-106.5 45.5t-43.5 108.5z" />
<glyph unicode="&#xc5;" horiz-adv-x="1253" d="M-10 0l497 1368l269 70l512 -1438h-324l-110 303l-457 -37l-88 -266h-299zM373 1716q0 104 72 166t182 62t182 -62t72 -166q0 -106 -71.5 -166.5t-182.5 -60.5t-182.5 60.5t-71.5 166.5zM453 508l299 29l-152 421zM532 1716q0 -36 27 -56t68 -20q39 0 67.5 20.5 t28.5 55.5q0 36 -27.5 56t-68.5 20q-42 0 -68.5 -19.5t-26.5 -56.5z" />
<glyph unicode="&#xc6;" horiz-adv-x="1644" d="M-47 0l661 1403h906l-21 -246h-391v-317h393l-24 -246h-369v-348h453l-37 -246h-725v336l-389 -27l-148 -309h-309zM512 545l287 24v586h-11z" />
<glyph unicode="&#xc7;" horiz-adv-x="1155" d="M80 662q0 155 41 283.5t111.5 218t166.5 151t205.5 90.5t229.5 29q143 0 258 -35l-60 -269q-99 31 -194 31q-52 0 -105.5 -12t-111.5 -44.5t-102 -81t-72.5 -129.5t-28.5 -183q0 -110 27.5 -195.5t70.5 -135.5t101 -82.5t112 -44t111 -11.5q66 0 142 16t122 39l16 -12 l-55 -277q-113 -39 -307 -39l-15 -35q11 -3 22 -7t30 -15.5t32.5 -27.5t24 -44t10.5 -63q0 -56 -24.5 -98t-64.5 -64.5t-84 -33.5t-91 -11q-43 0 -68 10l23 148q26 -15 82 -15q28 0 45.5 13.5t17.5 37.5q0 66 -110 76l55 137q-121 16 -220.5 63.5t-177.5 129t-121.5 207 t-43.5 285.5z" />
<glyph unicode="&#xc8;" horiz-adv-x="1085" d="M172 0v1403h791l-21 -246h-444v-317h442l-22 -246h-420v-348h506l-37 -246h-795zM283 1638l69 203l479 -176l-45 -152l-487 82z" />
<glyph unicode="&#xc9;" horiz-adv-x="1085" d="M172 0v1403h791l-21 -246h-444v-317h442l-22 -246h-420v-348h506l-37 -246h-795zM289 1638l444 191l82 -213l-18 -43l-469 -68z" />
<glyph unicode="&#xca;" horiz-adv-x="1085" d="M172 0v1403h791l-21 -246h-444v-317h442l-22 -246h-420v-348h506l-37 -246h-795zM201 1608l352 268l362 -248l-71 -141l-297 117l-273 -117z" />
<glyph unicode="&#xcb;" horiz-adv-x="1085" d="M172 0v1403h791l-21 -246h-444v-317h442l-22 -246h-420v-348h506l-37 -246h-795zM193 1665q0 63 44 108.5t107 45.5t106.5 -45.5t43.5 -108.5t-43.5 -108.5t-106.5 -45.5t-107 45.5t-44 108.5zM627 1665q0 63 43 108.5t106 45.5t107.5 -45.5t44.5 -108.5t-44.5 -108.5 t-107.5 -45.5t-106 45.5t-43 108.5z" />
<glyph unicode="&#xcc;" horiz-adv-x="671" d="M31 1638l69 203l480 -176l-45 -152l-488 82zM172 0v1403h328v-1403h-328z" />
<glyph unicode="&#xcd;" horiz-adv-x="671" d="M123 1638l444 191l82 -213l-18 -43l-467 -68zM172 0v1403h328v-1403h-328z" />
<glyph unicode="&#xce;" horiz-adv-x="671" d="M0 1608l336 268l348 -250l-74 -139l-280 117l-256 -117zM172 0v1403h328v-1403h-328z" />
<glyph unicode="&#xcf;" horiz-adv-x="671" d="M-10 1665q0 63 44 108.5t107 45.5t106.5 -45.5t43.5 -108.5t-43.5 -108.5t-106.5 -45.5t-107 45.5t-44 108.5zM172 0v1403h328v-1403h-328zM385 1665q0 63 43.5 108.5t106.5 45.5t107 -45.5t44 -108.5t-44 -108.5t-107 -45.5t-106.5 45.5t-43.5 108.5z" />
<glyph unicode="&#xd0;" horiz-adv-x="1433" d="M-8 633l74 192h106v578q68 11 180 21t191 10q135 0 250.5 -19.5t221 -66t179 -118t117 -182.5t43.5 -253q0 -795 -899 -795h-283v633h-180zM498 246q86 0 159.5 14t141.5 48.5t116 88.5t76.5 138t28.5 192q0 99 -25.5 179t-67.5 132.5t-100.5 88t-121.5 50.5t-132 15 q-11 0 -75 -8v-359h274l-61 -192h-213v-387z" />
<glyph unicode="&#xd1;" horiz-adv-x="1503" d="M172 0v1358l270 80l275 -412q161 -242 315 -510l8 4l-36 883h327v-1403h-278l-242 354q-17 25 -107.5 157t-147 215.5t-87.5 135.5l-8 -4l39 -858h-328zM354 1587q50 126 108 179t128 53q72 0 172 -47q89 -39 147 -39q28 0 46.5 21.5t37.5 66.5l160 -66 q-50 -128 -105 -182.5t-118 -54.5q-82 0 -178 47q-76 39 -148 39q-59 0 -90 -88z" />
<glyph unicode="&#xd2;" horiz-adv-x="1478" d="M80 696q0 144 36.5 266t99.5 208t148.5 146t183 89t202.5 29q104 0 199.5 -27.5t177.5 -85t142.5 -139.5t95 -198.5t34.5 -254.5q0 -190 -52 -336.5t-146 -238.5t-219 -138.5t-277 -46.5q-132 0 -244 45t-198 132.5t-134.5 228.5t-48.5 321zM418 797q0 -246 94 -402.5 t250 -156.5q58 0 109.5 21t95 64t69 117.5t25.5 171.5q0 247 -94.5 401t-259.5 154q-123 0 -206 -103.5t-83 -266.5zM440 1642l70 203l491 -180l-45 -152l-499 86z" />
<glyph unicode="&#xd3;" horiz-adv-x="1478" d="M80 696q0 144 36.5 266t99.5 208t148.5 146t183 89t202.5 29q104 0 199.5 -27.5t177.5 -85t142.5 -139.5t95 -198.5t34.5 -254.5q0 -190 -52 -336.5t-146 -238.5t-219 -138.5t-277 -46.5q-132 0 -244 45t-198 132.5t-134.5 228.5t-48.5 321zM418 797q0 -246 94 -402.5 t250 -156.5q58 0 109.5 21t95 64t69 117.5t25.5 171.5q0 247 -94.5 401t-259.5 154q-123 0 -206 -103.5t-83 -266.5zM485 1638l459 195l82 -213l-18 -43l-482 -72z" />
<glyph unicode="&#xd4;" horiz-adv-x="1478" d="M80 696q0 144 36.5 266t99.5 208t148.5 146t183 89t202.5 29q104 0 199.5 -27.5t177.5 -85t142.5 -139.5t95 -198.5t34.5 -254.5q0 -190 -52 -336.5t-146 -238.5t-219 -138.5t-277 -46.5q-132 0 -244 45t-198 132.5t-134.5 228.5t-48.5 321zM391 1608l352 268l363 -248 l-72 -141l-297 117l-272 -117zM418 797q0 -246 94 -402.5t250 -156.5q58 0 109.5 21t95 64t69 117.5t25.5 171.5q0 247 -94.5 401t-259.5 154q-123 0 -206 -103.5t-83 -266.5z" />
<glyph unicode="&#xd5;" horiz-adv-x="1478" d="M80 696q0 144 36.5 266t99.5 208t148.5 146t183 89t202.5 29q104 0 199.5 -27.5t177.5 -85t142.5 -139.5t95 -198.5t34.5 -254.5q0 -190 -52 -336.5t-146 -238.5t-219 -138.5t-277 -46.5q-132 0 -244 45t-198 132.5t-134.5 228.5t-48.5 321zM354 1587q50 126 108 179 t128 53q72 0 172 -47q89 -39 147 -39q28 0 46.5 21.5t37.5 66.5l160 -66q-50 -128 -105 -182.5t-118 -54.5q-82 0 -178 47q-76 39 -148 39q-59 0 -90 -88zM418 797q0 -246 94 -402.5t250 -156.5q58 0 109.5 21t95 64t69 117.5t25.5 171.5q0 247 -94.5 401t-259.5 154 q-123 0 -206 -103.5t-83 -266.5z" />
<glyph unicode="&#xd6;" horiz-adv-x="1478" d="M80 696q0 144 36.5 266t99.5 208t148.5 146t183 89t202.5 29q104 0 199.5 -27.5t177.5 -85t142.5 -139.5t95 -198.5t34.5 -254.5q0 -190 -52 -336.5t-146 -238.5t-219 -138.5t-277 -46.5q-132 0 -244 45t-198 132.5t-134.5 228.5t-48.5 321zM383 1665q0 63 44.5 108.5 t107.5 45.5t106 -45.5t43 -108.5t-43 -108.5t-106 -45.5t-107.5 45.5t-44.5 108.5zM418 797q0 -246 94 -402.5t250 -156.5q58 0 109.5 21t95 64t69 117.5t25.5 171.5q0 247 -94.5 401t-259.5 154q-123 0 -206 -103.5t-83 -266.5zM815 1665q0 63 43.5 108.5t106.5 45.5 t107 -45.5t44 -108.5t-44 -108.5t-107 -45.5t-106.5 45.5t-43.5 108.5z" />
<glyph unicode="&#xd7;" d="M184 473l224 223l-224 224l166 165l223 -223l226 223l166 -165l-224 -224l222 -223l-166 -166l-224 223l-223 -223z" />
<glyph unicode="&#xd8;" horiz-adv-x="1478" d="M80 696q0 144 36.5 266t99.5 208t148.5 146t183 89t202.5 29q195 0 344 -91l92 134l108 -76l-96 -137q201 -191 201 -535q0 -190 -52 -336.5t-146 -238.5t-219 -138.5t-277 -46.5q-195 0 -345 101l-114 -166l-109 76l125 174q-182 195 -182 542zM403 799q0 -189 70 -342 l447 637q-88 82 -213 82q-124 0 -214 -107.5t-90 -269.5zM545 334q90 -101 217 -101q57 0 111 22.5t100 66.5t74 119.5t28 172.5q0 214 -78 367z" />
<glyph unicode="&#xd9;" horiz-adv-x="1478" d="M172 473v930h328v-825q0 -167 53.5 -237.5t173.5 -70.5q143 0 252 95v1038h328v-1403h-328v150q-206 -181 -451 -181q-356 0 -356 504zM432 1642l70 203l491 -180l-45 -152l-499 86z" />
<glyph unicode="&#xda;" horiz-adv-x="1478" d="M172 473v930h328v-825q0 -167 53.5 -237.5t173.5 -70.5q143 0 252 95v1038h328v-1403h-328v150q-206 -181 -451 -181q-356 0 -356 504zM498 1638l458 195l82 -213l-18 -43l-481 -72z" />
<glyph unicode="&#xdb;" horiz-adv-x="1478" d="M172 473v930h328v-825q0 -167 53.5 -237.5t173.5 -70.5q143 0 252 95v1038h328v-1403h-328v150q-206 -181 -451 -181q-356 0 -356 504zM381 1608l352 268l365 -248l-74 -141l-297 117l-272 -117z" />
<glyph unicode="&#xdc;" horiz-adv-x="1478" d="M172 473v930h328v-825q0 -167 53.5 -237.5t173.5 -70.5q143 0 252 95v1038h328v-1403h-328v150q-206 -181 -451 -181q-356 0 -356 504zM367 1665q0 63 44 108.5t107 45.5t106.5 -45.5t43.5 -108.5t-43.5 -108.5t-106.5 -45.5t-107 45.5t-44 108.5zM799 1665 q0 63 43 108.5t106 45.5t107.5 -45.5t44.5 -108.5t-44.5 -108.5t-107.5 -45.5t-106 45.5t-43 108.5z" />
<glyph unicode="&#xdd;" horiz-adv-x="1220" d="M-20 1403h370l291 -553l258 553h342l-477 -850v-553h-328v539zM391 1638l445 191l82 -213l-19 -43l-469 -68z" />
<glyph unicode="&#xde;" horiz-adv-x="1165" d="M172 0v1403h328v-219q18 2 61 2q100 0 179.5 -10.5t153 -38.5t123 -73.5t78.5 -117.5t29 -168q0 -127 -49.5 -226.5t-135.5 -161.5t-197.5 -94t-241.5 -32v-264h-328zM500 500q62 0 114.5 12t97 39t70 75.5t25.5 114.5q0 62 -18.5 107t-50 68.5t-66.5 34t-76 10.5 q-58 0 -96 -11v-450z" />
<glyph unicode="&#xdf;" horiz-adv-x="1239" d="M125 0v985q0 263 145 420.5t406 157.5q178 0 289.5 -95.5t111.5 -236.5q0 -90 -31.5 -162t-87.5 -145q-36 -46 -53.5 -80.5t-17.5 -71.5q0 -72 139 -156q82 -51 129 -112.5t47 -159.5q0 -78 -24 -141.5t-63 -105t-92 -70t-109 -40.5t-115 -12q-175 0 -269 84l113 203 q37 -40 82 -62t84 -22q43 0 72.5 28.5t29.5 74.5q0 45 -28 79.5t-107 85.5q-64 41 -100.5 74.5t-58 78.5t-21.5 103q0 44 16.5 91.5t32 74t45.5 72.5q74 106 74 207q0 77 -37 123.5t-111 46.5q-188 0 -188 -332v-985h-303z" />
<glyph unicode="&#xe0;" horiz-adv-x="974" d="M47 203q0 86 28.5 152.5t75 109.5t116.5 73.5t141 45.5t161 24q0 172 -137 172q-118 0 -250 -75l-78 188q83 53 213.5 99t272.5 46q65 0 114 -19.5t78 -51.5t46.5 -79t23.5 -95t6 -107v-369q0 -166 55 -249l-278 -99q-21 20 -40 59.5t-22 69.5l-10 4q-59 -58 -143 -95.5 t-164 -37.5q-102 0 -155.5 65.5t-53.5 168.5zM207 1389l125 161l379 -303l-84 -123l-416 219zM319 291q0 -45 30.5 -74t78.5 -29q75 0 141 66v162q-25 10 -84 10q-69 0 -117.5 -35t-48.5 -100z" />
<glyph unicode="&#xe1;" horiz-adv-x="974" d="M47 203q0 86 28.5 152.5t75 109.5t116.5 73.5t141 45.5t161 24q0 172 -137 172q-118 0 -250 -75l-78 188q83 53 213.5 99t272.5 46q65 0 114 -19.5t78 -51.5t46.5 -79t23.5 -95t6 -107v-369q0 -166 55 -249l-278 -99q-21 20 -40 59.5t-22 69.5l-10 4q-59 -58 -143 -95.5 t-164 -37.5q-102 0 -155.5 65.5t-53.5 168.5zM262 1227l332 329l149 -161l-2 -45l-395 -230zM319 291q0 -45 30.5 -74t78.5 -29q75 0 141 66v162q-25 10 -84 10q-69 0 -117.5 -35t-48.5 -100z" />
<glyph unicode="&#xe2;" horiz-adv-x="974" d="M47 203q0 86 28.5 152.5t75 109.5t116.5 73.5t141 45.5t161 24q0 172 -137 172q-118 0 -250 -75l-78 188q83 53 213.5 99t272.5 46q65 0 114 -19.5t78 -51.5t46.5 -79t23.5 -95t6 -107v-369q0 -166 55 -249l-278 -99q-21 20 -40 59.5t-22 69.5l-10 4q-59 -58 -143 -95.5 t-164 -37.5q-102 0 -155.5 65.5t-53.5 168.5zM133 1227l348 329l363 -311l-84 -125l-285 170l-258 -170zM319 291q0 -45 30.5 -74t78.5 -29q75 0 141 66v162q-25 10 -84 10q-69 0 -117.5 -35t-48.5 -100z" />
<glyph unicode="&#xe3;" horiz-adv-x="974" d="M47 203q0 86 28.5 152.5t75 109.5t116.5 73.5t141 45.5t161 24q0 172 -137 172q-118 0 -250 -75l-78 188q83 53 213.5 99t272.5 46q65 0 114 -19.5t78 -51.5t46.5 -79t23.5 -95t6 -107v-369q0 -166 55 -249l-278 -99q-21 20 -40 59.5t-22 69.5l-10 4q-59 -58 -143 -95.5 t-164 -37.5q-102 0 -155.5 65.5t-53.5 168.5zM121 1227q49 120 103.5 170.5t119.5 50.5q55 0 137 -35q66 -29 117 -29q27 0 45.5 21t34.5 63l153 -65q-86 -225 -213 -225q-59 0 -145 36q-65 29 -115 29q-59 0 -86 -84zM319 291q0 -45 30.5 -74t78.5 -29q75 0 141 66v162 q-25 10 -84 10q-69 0 -117.5 -35t-48.5 -100z" />
<glyph unicode="&#xe4;" horiz-adv-x="974" d="M47 203q0 86 28.5 152.5t75 109.5t116.5 73.5t141 45.5t161 24q0 172 -137 172q-118 0 -250 -75l-78 188q83 53 213.5 99t272.5 46q65 0 114 -19.5t78 -51.5t46.5 -79t23.5 -95t6 -107v-369q0 -166 55 -249l-278 -99q-21 20 -40 59.5t-22 69.5l-10 4q-59 -58 -143 -95.5 t-164 -37.5q-102 0 -155.5 65.5t-53.5 168.5zM127 1315q0 62 42 104.5t103 42.5t101.5 -42.5t40.5 -104.5t-40.5 -105t-101.5 -43t-103 43t-42 105zM319 291q0 -45 30.5 -74t78.5 -29q75 0 141 66v162q-25 10 -84 10q-69 0 -117.5 -35t-48.5 -100zM541 1315q0 62 40 104.5 t101 42.5t103 -42.5t42 -104.5t-42 -105t-103 -43t-101 43t-40 105z" />
<glyph unicode="&#xe5;" horiz-adv-x="974" d="M47 203q0 86 28.5 152.5t75 109.5t116.5 73.5t141 45.5t161 24q0 172 -137 172q-118 0 -250 -75l-78 188q83 53 213.5 99t272.5 46q65 0 114 -19.5t78 -51.5t46.5 -79t23.5 -95t6 -107v-369q0 -166 55 -249l-278 -99q-21 20 -40 59.5t-22 69.5l-10 4q-59 -58 -143 -95.5 t-164 -37.5q-102 0 -155.5 65.5t-53.5 168.5zM231 1370q0 102 70.5 170t175.5 68t176.5 -68t71.5 -170q0 -103 -71.5 -171.5t-176.5 -68.5t-175.5 68t-70.5 172zM319 291q0 -45 30.5 -74t78.5 -29q75 0 141 66v162q-25 10 -84 10q-69 0 -117.5 -35t-48.5 -100zM385 1370 q0 -40 26 -67t66 -27q39 0 66.5 27.5t27.5 66.5q0 40 -27.5 66t-66.5 26q-40 0 -66 -25.5t-26 -66.5z" />
<glyph unicode="&#xe6;" horiz-adv-x="1462" d="M47 203q0 88 28 158t73.5 114.5t110 75.5t129.5 46t140 21q0 34 -4.5 61t-16 55t-38.5 43.5t-66 15.5q-114 0 -237 -72l-74 180q85 57 202 97t222 40q71 0 116 -34.5t60 -96.5h10q36 60 107 95.5t162 35.5q105 0 187.5 -42.5t133.5 -117.5t77 -172.5t26 -213.5l-27 -27 h-567q0 -27 8 -51q24 -94 100.5 -149.5t194.5 -55.5q53 0 122.5 17t114.5 38l56 -225q-58 -29 -153 -49.5t-197 -20.5q-241 0 -363 154q-97 -81 -192 -117.5t-203 -36.5q-103 0 -172.5 67t-69.5 167zM319 295q0 -51 30 -76.5t79 -25.5q100 0 154 86q-12 23 -24 70t-13 79 q-28 8 -64 8q-67 0 -114.5 -38.5t-47.5 -102.5zM807 647h293q0 91 -39 142t-98 51q-65 0 -106 -49.5t-50 -143.5z" />
<glyph unicode="&#xe7;" horiz-adv-x="907" d="M66 492q0 242 148.5 393t375.5 151q158 0 256 -43l-58 -248q-76 37 -167 37q-106 0 -174 -63.5t-68 -196.5q0 -139 69 -219t191 -80q102 0 184 45l47 -241q-113 -55 -295 -58l-16 -45q13 -2 25 -5t31 -12.5t33 -23t24 -38.5t10 -56q0 -56 -21.5 -97t-59 -64.5t-83 -34.5 t-100.5 -11q-33 0 -53 8l22 146q26 -15 74 -15q29 0 46 13.5t17 36.5q0 63 -112 63l55 141q-207 24 -304 159.5t-97 357.5z" />
<glyph unicode="&#xe8;" horiz-adv-x="1036" d="M66 487q0 246 128.5 398.5t342.5 152.5q108 0 192.5 -42.5t136.5 -117.5t78.5 -172.5t26.5 -213.5l-27 -27h-573q10 -123 93.5 -189.5t205.5 -66.5q59 0 130.5 16.5t117.5 38.5l53 -225q-58 -29 -154.5 -49.5t-204.5 -20.5q-255 0 -400.5 136t-145.5 382zM231 1389 l125 161l379 -303l-84 -123l-415 219zM371 653h301q0 87 -39.5 137t-102.5 50q-69 0 -111 -50t-48 -137z" />
<glyph unicode="&#xe9;" horiz-adv-x="1036" d="M66 487q0 246 128.5 398.5t342.5 152.5q108 0 192.5 -42.5t136.5 -117.5t78.5 -172.5t26.5 -213.5l-27 -27h-573q10 -123 93.5 -189.5t205.5 -66.5q59 0 130.5 16.5t117.5 38.5l53 -225q-58 -29 -154.5 -49.5t-204.5 -20.5q-255 0 -400.5 136t-145.5 382zM303 1227 l332 329l149 -161l-2 -45l-395 -230zM371 653h301q0 87 -39.5 137t-102.5 50q-69 0 -111 -50t-48 -137z" />
<glyph unicode="&#xea;" horiz-adv-x="1036" d="M66 487q0 246 128.5 398.5t342.5 152.5q108 0 192.5 -42.5t136.5 -117.5t78.5 -172.5t26.5 -213.5l-27 -27h-573q10 -123 93.5 -189.5t205.5 -66.5q59 0 130.5 16.5t117.5 38.5l53 -225q-58 -29 -154.5 -49.5t-204.5 -20.5q-255 0 -400.5 136t-145.5 382zM170 1227 l348 329l363 -311l-84 -125l-285 170l-258 -170zM371 653h301q0 87 -39.5 137t-102.5 50q-69 0 -111 -50t-48 -137z" />
<glyph unicode="&#xeb;" horiz-adv-x="1036" d="M66 487q0 246 128.5 398.5t342.5 152.5q108 0 192.5 -42.5t136.5 -117.5t78.5 -172.5t26.5 -213.5l-27 -27h-573q10 -123 93.5 -189.5t205.5 -66.5q59 0 130.5 16.5t117.5 38.5l53 -225q-58 -29 -154.5 -49.5t-204.5 -20.5q-255 0 -400.5 136t-145.5 382zM180 1315 q0 62 42.5 104.5t103.5 42.5t101 -42.5t40 -104.5t-40 -105t-101 -43t-103.5 43t-42.5 105zM371 653h301q0 87 -39.5 137t-102.5 50q-69 0 -111 -50t-48 -137zM594 1315q0 62 40 104.5t101 42.5t103.5 -42.5t42.5 -104.5t-42.5 -105t-103.5 -43t-101 43t-40 105z" />
<glyph unicode="&#xec;" horiz-adv-x="577" d="M29 1384l2 43l135 148l336 -336l-92 -115zM131 0v948l303 90v-1038h-303z" />
<glyph unicode="&#xed;" horiz-adv-x="577" d="M92 1221l297 356l160 -150l2 -43l-369 -264zM131 0v948l303 90v-1038h-303z" />
<glyph unicode="&#xee;" horiz-adv-x="577" d="M-12 1221l295 335l311 -317l-88 -119l-230 156l-202 -156zM131 0v948l303 90v-1038h-303z" />
<glyph unicode="&#xef;" horiz-adv-x="577" d="M-29 1315q0 62 41.5 104.5t102.5 42.5t102 -42.5t41 -104.5t-41 -105t-102 -43t-102.5 43t-41.5 105zM131 0v948l303 90v-1038h-303zM326 1315q0 62 41 104.5t102 42.5t103 -42.5t42 -104.5t-42 -105t-103 -43t-102 43t-41 105z" />
<glyph unicode="&#xf0;" horiz-adv-x="1091" d="M59 453q0 253 141.5 417t370.5 164q32 0 82 -10q-19 48 -60.5 107t-80.5 98l-184 -139l-62 170l111 86q-83 63 -158 96l217 155q123 -69 168 -104l172 125l53 -176l-88 -66q285 -293 285 -741q0 -153 -33 -272t-86 -192t-125 -120t-142.5 -64.5t-147.5 -17.5 q-89 0 -163.5 31.5t-123 81.5t-82.5 114.5t-49 129.5t-15 127zM371 516q0 -125 47 -202.5t125 -77.5q98 0 145 85t47 277q0 123 -22 180q-59 35 -133 35q-36 0 -71.5 -17t-67 -51t-51 -93.5t-19.5 -135.5z" />
<glyph unicode="&#xf1;" horiz-adv-x="1185" d="M88 944l297 94q18 -21 33 -58.5t20 -70.5l8 -4q181 133 363 133q69 0 119 -27.5t76.5 -75.5t38.5 -103t12 -121v-711h-303v592q0 94 -33 137t-107 43q-97 0 -172 -55v-717h-303v686q0 171 -49 258zM217 1227q49 120 103.5 170.5t119.5 50.5q55 0 162 -35q89 -29 141 -29 q27 0 45.5 21t34.5 63l154 -65q-86 -225 -213 -225q-72 0 -170 36q-79 29 -139 29q-59 0 -86 -84z" />
<glyph unicode="&#xf2;" horiz-adv-x="1138" d="M66 510q0 159 68.5 280.5t185 184.5t262.5 63q212 0 351.5 -143t139.5 -383q0 -260 -139 -401.5t-367 -141.5q-226 0 -363.5 144t-137.5 397zM276 1389l125 161l379 -303l-84 -123l-415 219zM369 563q0 -149 63 -244.5t158 -95.5q86 0 133 56t47 167q0 142 -59.5 240 t-157.5 98q-84 0 -134 -62.5t-50 -158.5z" />
<glyph unicode="&#xf3;" horiz-adv-x="1138" d="M66 510q0 159 68.5 280.5t185 184.5t262.5 63q212 0 351.5 -143t139.5 -383q0 -260 -139 -401.5t-367 -141.5q-226 0 -363.5 144t-137.5 397zM352 1227l332 329l150 -161l-3 -45l-395 -230zM369 563q0 -149 63 -244.5t158 -95.5q86 0 133 56t47 167q0 142 -59.5 240 t-157.5 98q-84 0 -134 -62.5t-50 -158.5z" />
<glyph unicode="&#xf4;" horiz-adv-x="1138" d="M66 510q0 159 68.5 280.5t185 184.5t262.5 63q212 0 351.5 -143t139.5 -383q0 -260 -139 -401.5t-367 -141.5q-226 0 -363.5 144t-137.5 397zM207 1227l348 329l363 -311l-84 -125l-285 170l-258 -170zM369 563q0 -149 63 -244.5t158 -95.5q86 0 133 56t47 167 q0 142 -59.5 240t-157.5 98q-84 0 -134 -62.5t-50 -158.5z" />
<glyph unicode="&#xf5;" horiz-adv-x="1138" d="M66 510q0 159 68.5 280.5t185 184.5t262.5 63q212 0 351.5 -143t139.5 -383q0 -260 -139 -401.5t-367 -141.5q-226 0 -363.5 144t-137.5 397zM186 1227q49 120 103.5 170.5t120.5 50.5q54 0 161 -35q89 -29 142 -29q27 0 45.5 21t34.5 63l153 -65q-86 -225 -213 -225 q-72 0 -170 36q-79 29 -139 29q-59 0 -86 -84zM369 563q0 -149 63 -244.5t158 -95.5q86 0 133 56t47 167q0 142 -59.5 240t-157.5 98q-84 0 -134 -62.5t-50 -158.5z" />
<glyph unicode="&#xf6;" horiz-adv-x="1138" d="M66 510q0 159 68.5 280.5t185 184.5t262.5 63q212 0 351.5 -143t139.5 -383q0 -260 -139 -401.5t-367 -141.5q-226 0 -363.5 144t-137.5 397zM190 1315q0 62 42.5 104.5t103.5 42.5t101 -42.5t40 -104.5t-40 -105t-101 -43t-103.5 43t-42.5 105zM369 563 q0 -149 63 -244.5t158 -95.5q86 0 133 56t47 167q0 142 -59.5 240t-157.5 98q-84 0 -134 -62.5t-50 -158.5zM604 1315q0 62 40 104.5t101 42.5t103.5 -42.5t42.5 -104.5t-42.5 -105t-103.5 -43t-101 43t-40 105z" />
<glyph unicode="&#xf7;" d="M166 553v252h815v-252h-815zM393 313q19 56 77 103t118 53q57 -21 102.5 -77t54.5 -122q-20 -58 -78 -103.5t-120 -53.5q-53 20 -99 80t-55 120zM393 1087q19 56 77.5 104t117.5 54q57 -21 102.5 -78t54.5 -123q-20 -58 -78 -102.5t-120 -52.5q-53 20 -99 79t-55 119z " />
<glyph unicode="&#xf8;" horiz-adv-x="1130" d="M61 510q0 239 147 383.5t370 144.5q140 0 249 -65l78 114l96 -67l-81 -117q149 -146 149 -391q0 -260 -139 -401.5t-367 -141.5q-142 0 -254 62l-86 -121l-96 67l86 121q-152 146 -152 412zM348 565q0 -121 45 -209l279 396q-52 49 -123 49q-88 0 -144.5 -68t-56.5 -168z M467 256q57 -47 119 -47q89 0 141.5 63t52.5 177q0 109 -39 198z" />
<glyph unicode="&#xf9;" horiz-adv-x="1171" d="M131 346v602l303 90v-624q0 -93 27.5 -135.5t101.5 -42.5q84 0 162 55v657l303 90v-716q0 -171 55 -254l-292 -99q-49 49 -64 129l-8 4q-177 -133 -352 -133q-62 0 -107.5 25t-69.5 61t-38 91t-17.5 99t-3.5 101zM231 1389l125 161l379 -303l-84 -123l-415 219z" />
<glyph unicode="&#xfa;" horiz-adv-x="1171" d="M131 346v602l303 90v-624q0 -93 27.5 -135.5t101.5 -42.5q84 0 162 55v657l303 90v-716q0 -171 55 -254l-292 -99q-49 49 -64 129l-8 4q-177 -133 -352 -133q-62 0 -107.5 25t-69.5 61t-38 91t-17.5 99t-3.5 101zM410 1227l331 329l150 -161l-2 -45l-395 -230z" />
<glyph unicode="&#xfb;" horiz-adv-x="1171" d="M131 346v602l303 90v-624q0 -93 27.5 -135.5t101.5 -42.5q84 0 162 55v657l303 90v-716q0 -171 55 -254l-292 -99q-49 49 -64 129l-8 4q-177 -133 -352 -133q-62 0 -107.5 25t-69.5 61t-38 91t-17.5 99t-3.5 101zM219 1227l348 329l363 -311l-84 -125l-285 170l-258 -170 z" />
<glyph unicode="&#xfc;" horiz-adv-x="1171" d="M131 346v602l303 90v-624q0 -93 27.5 -135.5t101.5 -42.5q84 0 162 55v657l303 90v-716q0 -171 55 -254l-292 -99q-49 49 -64 129l-8 4q-177 -133 -352 -133q-62 0 -107.5 25t-69.5 61t-38 91t-17.5 99t-3.5 101zM207 1315q0 62 42 104.5t103 42.5t101.5 -42.5 t40.5 -104.5t-40.5 -105t-101.5 -43t-103 43t-42 105zM621 1315q0 62 40 104.5t101 42.5t103 -42.5t42 -104.5t-42 -105t-103 -43t-101 43t-40 105z" />
<glyph unicode="&#xfd;" horiz-adv-x="1081" d="M18 946l306 92l227 -772h6l215 742h309l-557 -1459l-293 78l207 373h-116zM377 1227l332 329l149 -161l-2 -45l-395 -230z" />
<glyph unicode="&#xfe;" horiz-adv-x="1153" d="M137 -451v1948l301 90v-676l11 -6q155 133 339 133q129 0 214 -127.5t85 -318.5q0 -131 -34 -242.5t-99 -195.5t-166.5 -131.5t-228.5 -47.5q-61 0 -121 13v-348zM438 227q19 -11 56 -21.5t67 -10.5q100 0 156.5 79.5t56.5 231.5q0 132 -48 199t-138 67q-37 0 -80 -15.5 t-70 -39.5v-490z" />
<glyph unicode="&#xff;" horiz-adv-x="1079" d="M18 946l306 92l227 -772h6l215 742h309l-557 -1459l-293 78l207 373h-116zM203 1315q0 62 42 104.5t103 42.5t101 -42.5t40 -104.5t-40 -105t-101 -43t-103 43t-42 105zM616 1315q0 62 40.5 104.5t101.5 42.5t103 -42.5t42 -104.5t-42 -105t-103 -43t-101.5 43t-40.5 105 z" />
<glyph unicode="&#x152;" horiz-adv-x="1765" d="M80 696q0 144 36.5 265t99 205t148 143t182.5 86.5t202 27.5q90 0 153 -20h739l-20 -246h-399v-317h401l-25 -246h-376v-348h460l-36 -246h-746q-78 -20 -190 -20q-136 0 -249 43t-198.5 129t-133.5 224.5t-48 319.5zM418 799q0 -248 92.5 -398.5t255.5 -150.5 q88 0 133 20v854q-68 35 -166 35q-141 0 -228 -96t-87 -264z" />
<glyph unicode="&#x153;" horiz-adv-x="1679" d="M66 510q0 240 142.5 384t364.5 144q99 0 178 -42t123 -119h11q47 77 126.5 119t176.5 42q108 0 191 -41t133 -115t75 -170t25 -212l-27 -27h-555q0 -21 6 -51q19 -95 96 -154t189 -59q58 0 124.5 16.5t113.5 38.5l55 -225q-140 -70 -350 -70q-266 0 -371 158h-10 q-51 -77 -138 -117.5t-186 -40.5q-225 0 -359 143.5t-134 397.5zM369 565q0 -150 59.5 -245t153.5 -95q74 0 116.5 57t42.5 167q0 155 -52 246t-144 91q-84 0 -130 -61.5t-46 -159.5zM1024 647h293q0 93 -37 143t-100 50q-66 0 -106.5 -49t-49.5 -144z" />
<glyph unicode="&#x178;" horiz-adv-x="1220" d="M-20 1403h370l291 -553l258 553h342l-479 -850v-553h-326v539zM256 1665q0 63 44.5 108.5t107.5 45.5t106 -45.5t43 -108.5t-43 -108.5t-106 -45.5t-107.5 45.5t-44.5 108.5zM688 1665q0 63 44.5 108.5t107.5 45.5t107 -45.5t44 -108.5t-44 -108.5t-107 -45.5 t-107.5 45.5t-44.5 108.5z" />
<glyph unicode="&#x2c6;" horiz-adv-x="903" d="M96 1227l348 329l363 -311l-84 -125l-285 170l-258 -170z" />
<glyph unicode="&#x2dc;" horiz-adv-x="1189" d="M215 1227q49 120 103.5 170.5t119.5 50.5q55 0 162 -35q89 -29 141 -29q27 0 45.5 21t34.5 63l154 -65q-86 -225 -213 -225q-72 0 -170 36q-79 29 -139 29q-59 0 -86 -84z" />
<glyph unicode="&#x2000;" horiz-adv-x="972" />
<glyph unicode="&#x2001;" horiz-adv-x="1944" />
<glyph unicode="&#x2002;" horiz-adv-x="972" />
<glyph unicode="&#x2003;" horiz-adv-x="1944" />
<glyph unicode="&#x2004;" horiz-adv-x="648" />
<glyph unicode="&#x2005;" horiz-adv-x="486" />
<glyph unicode="&#x2006;" horiz-adv-x="324" />
<glyph unicode="&#x2007;" horiz-adv-x="324" />
<glyph unicode="&#x2008;" horiz-adv-x="243" />
<glyph unicode="&#x2009;" horiz-adv-x="388" />
<glyph unicode="&#x200a;" horiz-adv-x="108" />
<glyph unicode="&#x2010;" horiz-adv-x="768" d="M92 412v254h584v-254h-584z" />
<glyph unicode="&#x2011;" horiz-adv-x="768" d="M92 412v254h584v-254h-584z" />
<glyph unicode="&#x2012;" horiz-adv-x="768" d="M92 412v254h584v-254h-584z" />
<glyph unicode="&#x2013;" horiz-adv-x="1193" d="M139 412v254h916v-254h-916z" />
<glyph unicode="&#x2014;" horiz-adv-x="1738" d="M139 412v254h1460v-254h-1460z" />
<glyph unicode="&#x2018;" horiz-adv-x="512" d="M57 967q3 135 86.5 303t200.5 289l123 -52q-46 -98 -74 -228t-28 -267l-265 -80z" />
<glyph unicode="&#x2019;" horiz-adv-x="512" d="M45 952q46 98 74 228t28 268l265 80l43 -35q-3 -135 -86.5 -303t-200.5 -289z" />
<glyph unicode="&#x201a;" horiz-adv-x="557" d="M45 -260q46 98 74 228t28 268l265 79l43 -34q-3 -135 -86.5 -303t-200.5 -289z" />
<glyph unicode="&#x201c;" horiz-adv-x="929" d="M57 967q3 135 86.5 303t200.5 289l123 -52q-46 -98 -74 -228t-28 -267l-265 -80zM475 967q3 135 86.5 303t200.5 289l123 -52q-46 -98 -74.5 -228t-28.5 -267l-264 -80z" />
<glyph unicode="&#x201d;" horiz-adv-x="929" d="M45 952q46 98 74 228t28 268l265 80l43 -35q-3 -135 -86.5 -303t-200.5 -289zM463 952q46 98 74 228t28 268l264 80l43 -35q-3 -135 -86 -303t-200 -289z" />
<glyph unicode="&#x201e;" horiz-adv-x="966" d="M37 -260q46 98 74 228t28 268l264 79l43 -34q-3 -135 -86 -303t-200 -289zM455 -260q46 98 74 228t28 268l264 79l43 -34q-3 -135 -86 -303t-200 -289z" />
<glyph unicode="&#x2022;" horiz-adv-x="854" d="M176 698q0 112 71 184t181 72q109 0 179.5 -72t70.5 -184t-70.5 -184t-179.5 -72q-110 0 -181 72t-71 184z" />
<glyph unicode="&#x2026;" horiz-adv-x="1744" d="M88 182q20 58 82 107t125 57q60 -21 108.5 -82.5t57.5 -130.5q-22 -61 -82 -108t-127 -56q-56 22 -105.5 86t-58.5 127zM686 182q20 58 82 107t125 57q60 -21 108.5 -82.5t57.5 -130.5q-22 -61 -82 -108t-127 -56q-56 22 -105.5 86t-58.5 127zM1284 182q20 58 82 107 t125 57q60 -21 108.5 -82.5t57.5 -130.5q-22 -61 -82 -108t-127 -56q-56 22 -105.5 86t-58.5 127z" />
<glyph unicode="&#x202f;" horiz-adv-x="388" />
<glyph unicode="&#x2039;" horiz-adv-x="589" d="M43 485l322 371l143 -119l-223 -252l223 -247l-146 -119z" />
<glyph unicode="&#x203a;" horiz-adv-x="589" d="M82 231l223 248l-223 252l143 119l322 -371l-322 -366z" />
<glyph unicode="&#x205f;" horiz-adv-x="486" />
<glyph unicode="&#x20ac;" d="M-23 475l54 160h123v27q0 5 6 110h-117l53 160h90q34 130 101.5 228t157.5 157t192.5 88t216.5 29q148 0 250 -35l-60 -254q-87 31 -184 31q-46 0 -90 -9.5t-96 -33.5t-96.5 -75.5t-71.5 -125.5h502l-45 -160h-490q0 -9 -1 -30t-1 -31q0 -51 2 -76h473l-47 -160h-391 q86 -248 342 -248q129 0 235 54l19 -13l-55 -264q-107 -35 -275 -35q-85 0 -163.5 18t-150 57.5t-128.5 97.5t-99 143t-61 190h-195z" />
<glyph unicode="&#x2122;" horiz-adv-x="1021" d="M84 1298l10 105h322l-10 -105h-93v-313h-123v313h-106zM414 987l88 406l84 22l82 -223h8l86 203l90 20l86 -428l-123 -4l-35 193h-8l-72 -179h-63l-62 179h-10l-35 -193z" />
<glyph unicode="&#x25fc;" horiz-adv-x="1034" d="M0 0v1034h1034v-1034h-1034z" />
</font>
</defs>
</svg>
